# xmcd
#
# Track frame offsets:
#	150
#	22915
#	48543
#	72125
#	95003
#	116019
#	139331
#	161219
#	184799
#	209864
#	231861
#	256644
#
# Disc length: 3749 seconds
#
# Revision: 0
# Processed by: cddbd v1.5.2PL0 Copyright (c) Steve Scherf et al.
# Submitted via: dBpowerAMP V4.0
#
DISCID=af0ea30c
DTITLE=Gary Taylor - Retro Blackness
DYEAR=1900
DGENRE=Blues
TTITLE0=Love like no other
TTITLE1=Do you know
TTITLE2=Old School
TTITLE3=Lovin' my people
TTITLE4=healing
TTITLE5=Down hill
TTITLE6=My Blackness
TTITLE7=As if
TTITLE8=Soul murder
TTITLE9=Thought I knew you
TTITLE10=Ghetto people
TTITLE11=(feat. the Whispers) W.O.C..
EXTD=It needs to change genre to R and B.
EXTT0=
EXTT1=
EXTT2=
EXTT3=
EXTT4=
EXTT5=
EXTT6=
EXTT7=
EXTT8=
EXTT9=
EXTT10=
EXTT11=
PLAYORDER=
